<svg width="121" height="82" viewBox="0 0 121 82" fill="none" xmlns="http://www.w3.org/2000/svg">
<g clip-path="url(#clip0_1_1667)">
<path d="M48.2297 31.5407C48.2297 31.5407 50.6937 11.6516 50.1374 4.38795C49.8522 0.662284 48.0371 -0.180594 45.2628 0.0318962C42.4885 0.244386 26.6235 8.62005 26.6235 8.62005L28.8843 14.0385L42.0784 9.91624C42.0784 9.91624 40.734 17.6544 40.4238 19.1241C40.1135 20.5939 39.4645 22.5736 38.9475 24.3479C38.6943 25.2226 38.3413 26.3559 38.3413 26.9048C38.3484 28.201 48.2297 31.5407 48.2297 31.5407Z" fill="#FFEDE5"/>
<path d="M42.078 9.91629C43.918 9.56214 45.7545 8.48198 46.3322 7.6214C46.0355 8.58909 45.3805 9.40913 44.4993 9.91629C43.6605 10.4534 42.7721 10.91 41.8462 11.2798L42.078 9.91629Z" fill="#F28F8F"/>
<path d="M73.2056 31.1865C72.931 30.1736 71.1409 29.1077 65.8063 28.2187C60.4716 27.3298 55.6183 28.2187 55.5898 28.8456C55.5613 29.4724 56.9056 33.662 63.0569 34.427C69.2082 35.192 73.769 33.4106 73.2056 31.1865Z" fill="#263238"/>
<path d="M57.1584 39.796C57.1584 39.796 53.6816 17.3995 54.1809 12.8274C54.6979 8.10302 56.5023 5.91083 59.5298 5.60272C63.4845 7.88345 65.5919 13.3338 68.1202 18.7063C70.6485 24.0788 73.3871 35.6028 73.5333 41.1098C73.6795 46.6169 69.2934 50.5409 64.326 51.2563C59.3586 51.9716 57.1584 39.796 57.1584 39.796Z" fill="#FFEDE5"/>
<path d="M62.6218 22.2619C61.0174 20.981 59.9333 19.1673 59.5693 17.1551L64.5438 15.4339L67.8994 18.2069L67.9993 18.4229C68.0421 18.515 68.0848 18.6071 68.1312 18.6992C68.2275 18.9046 68.3238 19.1206 68.42 19.3402C68.445 19.4039 68.4735 19.4677 68.5021 19.535C68.5769 19.705 68.6483 19.8891 68.7231 20.0662L68.798 20.2503C68.8979 20.4947 68.9942 20.7462 69.094 21.0047C69.1903 21.2632 69.2866 21.5288 69.3829 21.798C69.4042 21.8582 69.4256 21.9149 69.4435 21.9715L69.7002 22.7152C69.7002 22.7506 69.7252 22.7896 69.7394 22.825C69.9391 23.4271 70.1388 24.0504 70.3314 24.6878L70.3635 24.7906C70.4598 25.1057 70.5525 25.4245 70.6452 25.7468C70.6452 25.7468 66.0237 25.088 62.6218 22.2619Z" fill="#F28F8F"/>
<path d="M58.4819 5.79395C60.3718 5.05377 62.6718 6.78557 63.8878 7.5647C66.359 9.13713 81.468 20.8312 84.9912 23.5723C85.7543 24.0327 86.5317 24.4754 87.3233 24.8933L83.1725 31.3388C82.8317 30.4125 82.2983 29.5679 81.6071 28.8598C77.8414 26.1895 70.5526 24.7339 65.8598 22.9207C62.2083 21.5041 61.4452 20.7108 60.2149 18.639C59.2735 16.9993 55.8751 7.01931 58.4819 5.79395Z" fill="#FFEDE5"/>
<path d="M57.084 39.9199L55.5898 28.8456C55.5898 28.8456 56.9306 31.8984 63.8343 32.7023C70.738 33.5062 73.3804 32.3481 73.2057 31.1865C73.2057 31.1865 75.01 38.1208 74.3111 42.6256C73.6122 47.1304 66.6835 51.9291 66.6835 51.9291L57.084 39.9199Z" fill="#37474F"/>
<path opacity="0.15" d="M60.1399 41.4356C59.5052 41.4356 58.9097 41.4745 58.3569 41.51L66.0309 51.0968H67.8139C69.8037 49.5279 73.794 46.0006 74.3146 42.6362C74.8281 39.3319 73.9937 34.728 73.5122 32.5039C73.7868 35.0609 68.0278 41.2691 60.1399 41.4356Z" fill="black"/>
<path d="M94.7009 15.5224C92.2047 15.062 91.0458 16.8505 90.1258 18.3273C89.2058 19.8041 87.6653 22.5134 86.977 22.9702C86.2888 23.4271 85.9072 22.9702 84.9266 23.7033C83.946 24.4364 83.2292 25.8282 83.5323 26.3347L84.2455 27.5671C83.8343 27.5224 83.4183 27.5744 83.0311 27.719C82.6439 27.8636 82.2964 28.0966 82.0168 28.3994C80.947 29.4618 81.5033 29.6389 82.1059 30.2409C82.7086 30.843 84.1243 33.5629 85.5435 34.303C85.5435 34.303 89.3662 33.1662 92.137 28.8597C94.9077 24.5533 94.7009 15.5224 94.7009 15.5224Z" fill="url(#paint0_linear_1_1667)"/>
<path d="M86.3318 34.8732C86.1855 34.8474 86.0463 34.7916 85.923 34.7094C85.7996 34.6272 85.6949 34.5204 85.6154 34.3958C85.5359 34.2712 85.4834 34.1316 85.4612 33.9857C85.439 33.8399 85.4477 33.691 85.4866 33.5487C85.909 32.2207 86.5435 30.9688 87.3659 29.8407C88.3251 28.4879 90.1224 25.9451 90.4255 24.5533C90.7286 23.1614 91.3811 19.2622 92.4474 17.6296C93.5136 15.997 94.6083 15.0549 96.0133 15.5826C97.4183 16.1103 92.9823 26.5613 91.6807 28.332C90.3791 30.1028 86.3318 34.8732 86.3318 34.8732Z" fill="#37474F"/>
<path d="M87.152 34.6466C90.6645 32.7873 91.8198 30.9811 92.8575 28.626C93.8952 26.2709 96.3201 24.1 96.9477 21.9857C97.5753 19.8714 97.6395 14.4494 95.2253 15.7633C92.8112 17.0772 92.3084 21.9255 91.2493 24.7268C90.1902 27.5282 83.7073 36.4775 87.152 34.6466Z" fill="#263238"/>
<path d="M66.0413 40.3732C67.646 40.1288 70.7306 40.7875 73.5298 44.669C76.5359 48.8373 77.0958 56.1116 75.2094 56.7101C75.2094 56.7101 70.8375 56.2001 67.835 54.6383C64.8325 53.0765 59.7866 42.5264 66.0413 40.3732Z" fill="#263238"/>
<path d="M117.32 75.0799C112.663 73.2631 108.851 70.1395 105.552 66.6476C102.899 63.0707 91.5309 47.7537 89.559 45.5969C88.8458 44.8319 87.1555 42.8629 84.8127 42.3706C76.5183 40.5998 61.1597 40.8619 61.1597 40.8619L55.2545 39.8738L43.4868 50.8738C45.1093 52.5914 47.1455 54.0894 50.1231 55.63C53.1006 57.1706 56.3207 58.2897 60.664 57.9249C69.3578 57.1953 74.5713 54.7552 79.2248 53.6751C80.5728 53.3634 81.9706 53.0766 83.0297 55.2723C84.0888 57.468 84.1744 58.5694 87.3088 60.9033C91.3277 63.8994 97.9639 67.2497 100.859 70.8195C101.336 71.6946 101.621 72.6603 101.694 73.6527C101.968 77.4173 105.149 76.6772 107.713 78.3133C109.111 79.2058 110.149 80.2895 111.832 80.6578C113.364 80.9709 114.948 80.9419 116.468 80.5728C117.837 80.2505 119.798 79.2695 120.472 77.945C121.357 76.1814 118.661 75.6005 117.32 75.0799Z" fill="#FFEDE5"/>
<path d="M117.32 75.0799C112.663 73.2631 108.851 70.1395 105.552 66.6476C102.899 63.0707 91.5309 47.7537 89.559 45.5969C88.8458 44.8319 87.1555 42.8629 84.8127 42.3706C76.5183 40.5998 61.1597 40.8619 61.1597 40.8619L55.2545 39.8738L43.4868 50.8738C45.1093 52.5914 47.1455 54.0894 50.1231 55.63C53.1006 57.1706 56.3207 58.2897 60.664 57.9249C69.3578 57.1953 74.5713 54.7552 79.2248 53.6751C80.5728 53.3634 81.9706 53.0766 83.0297 55.2723C84.0888 57.468 84.1744 58.5694 87.3088 60.9033C91.3277 63.8994 97.9639 67.2497 100.859 70.8195C101.336 71.6946 101.621 72.6603 101.694 73.6527C101.968 77.4173 105.149 76.6772 107.713 78.3133C109.111 79.2058 110.149 80.2895 111.832 80.6578C113.364 80.9709 114.948 80.9419 116.468 80.5728C117.837 80.2505 119.798 79.2695 120.472 77.945C121.357 76.1814 118.661 75.6005 117.32 75.0799Z" fill="#FFEDE5"/>
<path d="M87.0416 59.1183C86.1587 58.1464 85.4884 57.0032 85.0732 55.761C84.7541 54.7226 84.3436 53.7141 83.8465 52.7471C82.3987 50.2681 72.792 53.4307 68.5378 54.7268C68.2989 55.081 67.3004 56.1435 66.9438 57.0288C72.0967 55.9841 75.8052 54.4648 79.2179 53.6715C80.5658 53.3598 81.9637 53.073 83.0227 55.2687C84.0818 57.4644 84.1674 58.5658 87.3019 60.8997C88.9351 62.118 90.9998 63.3787 93.0716 64.721C90.7573 62.9361 89.0135 61.1476 87.0416 59.1183Z" fill="#F28F8F"/>
<path d="M56.1672 39.8738C56.1672 39.8738 64.6078 40.2847 66.0413 40.3874C66.0413 40.3874 62.864 41.2373 66.7295 48.9968C70.595 56.7562 75.2129 56.7137 75.2129 56.7137C69.1508 58.6403 66.0021 60.8041 58.2746 59.9011C49.0638 58.5801 43.4795 51.7308 43.4795 51.7308L56.1672 39.8738Z" fill="#455A64"/>
<path opacity="0.15" d="M75.1915 56.7136C75.1215 56.7181 75.0512 56.7181 74.9811 56.7136C74.2929 56.6357 72.246 56.1895 69.9531 53.7636C68.133 54.2457 66.2863 54.6229 64.4223 54.8933C57.5329 55.8956 52.3659 54.6879 44.667 50.6116L43.4795 51.7237C46.5349 55.1457 50.4544 57.6959 54.8335 59.1112C55.1009 59.1927 55.3755 59.2742 55.6537 59.3485C55.914 59.4158 56.1779 59.4831 56.4417 59.5433L56.5131 59.561C56.7555 59.6177 57.0052 59.6673 57.2548 59.7168L57.3867 59.7416C57.6791 59.7983 57.9715 59.8479 58.2711 59.8904C58.756 59.947 59.2196 59.9895 59.6689 60.025C60.1182 60.0604 60.5497 60.0781 60.9705 60.0922H61.5874C61.7907 60.0922 61.9904 60.0922 62.1865 60.0922C62.7749 60.0922 63.3347 60.0462 63.8732 59.9931C64.2298 59.9577 64.5792 59.9152 64.9216 59.8656C65.746 59.7415 66.5627 59.5713 67.3678 59.3556C67.6816 59.2706 67.9919 59.1821 68.2985 59.0864C69.0723 58.8527 69.8355 58.5906 70.62 58.3073L71.5721 57.9532C72.6989 57.5424 73.8828 57.1103 75.2094 56.6889L75.1915 56.7136Z" fill="black"/>
<path d="M27.943 29.3096C24.5125 30.4924 21.2711 32.5607 24.0204 38.6131C27.943 47.3535 45.7228 57.0573 54.8517 59.1184C50.2159 52.1523 54.0743 44.7682 57.1018 39.9199L56.2852 33.9985C56.2852 33.9985 53.5465 32.6917 49.0106 29.2104C44.4747 25.7291 42.5919 24.7835 35.8416 26.8234C31.2023 28.2259 27.943 29.3096 27.943 29.3096Z" fill="url(#paint1_linear_1_1667)"/>
<path opacity="0.05" d="M41.8393 49.064C32.5036 43.7518 29.5688 39.0203 25.9066 34.4766L23.5103 37.3806C23.5744 37.5683 23.6458 37.7595 23.7242 37.9579C23.7229 37.9684 23.7229 37.9792 23.7242 37.9897C23.8027 38.1916 23.8918 38.4005 23.9881 38.613C25.7283 42.4379 30.0966 46.4468 35.2316 49.9352C35.9447 50.431 36.715 50.9162 37.471 51.3872C37.8525 51.6245 38.2341 51.8583 38.6192 52.0955C41.2307 53.6484 43.9338 55.0439 46.7139 56.2745C49.3223 57.4704 52.0385 58.419 54.8265 59.1077C53.8111 57.609 53.1325 55.9107 52.8367 54.1284C49.5917 53.158 46.1113 51.497 41.8393 49.064Z" fill="black"/>
<path d="M25.3682 30.4959C25.3682 30.4959 13.8537 24.3833 12.0315 23.5581L22.1089 17.6828L19.9694 12.1686C19.9694 12.1686 4.99234 17.4561 2.13957 18.9754C0.645438 19.7793 0 20.4416 0 21.582C0 23.4837 1.8222 25.9486 4.3469 28.0842C9.71366 32.6279 16.9953 36.86 24.088 40.7273C25.7141 41.9244 27.4044 43.4295 27.4044 43.4295C29.2694 44.3574 31.9831 35.794 25.3682 30.4959Z" fill="#FFEDE5"/>
<path d="M36.1482 9.25043C35.429 7.59216 34.0759 6.28556 32.3867 5.61808C30.6974 4.9506 28.8104 4.9769 27.1406 5.69122C25.4709 6.40553 24.1553 7.74933 23.4832 9.427C22.8111 11.1047 22.8376 12.9788 23.5569 14.6371C23.6032 14.7504 23.6603 14.8531 23.7138 14.9593L21.9736 18.7204L19.4025 14.0138C19.4036 13.643 19.2659 13.2851 19.0161 13.0096C18.7663 12.7341 18.4224 12.5606 18.051 12.5228C17.8627 12.5068 17.6731 12.5291 17.4937 12.5881C17.3143 12.6472 17.1488 12.7419 17.0074 12.8665C16.866 12.991 16.7516 13.1428 16.671 13.3126C16.5905 13.4825 16.5456 13.6668 16.5391 13.8544L18.5039 14.0244C18.0727 14.3084 17.7422 14.7197 17.5589 15.2002C17.0918 16.4114 18.7179 18.8798 20.8967 21.0472C20.8967 21.0472 23.9812 25.3714 24.7301 25.977C25.2126 26.3417 25.8174 26.509 26.4203 26.4444L26.6058 17.9448C27.8582 18.6162 29.2901 18.8834 30.7025 18.7094C32.115 18.5354 33.4377 17.9288 34.4871 16.9739C35.5364 16.0189 36.2602 14.7631 36.5579 13.3809C36.8556 11.9987 36.7124 10.5587 36.1482 9.26105V9.25043Z" fill="#263238"/>
<path d="M23.4888 20.1866C23.2035 20.5797 22.3334 20.0804 21.6452 19.79C20.957 19.4995 19.1134 19.4889 19.0421 21.4403C18.9708 23.3917 21.3849 24.9818 22.7721 24.8366C25.1613 24.5922 24.9116 23.1154 24.9116 23.1154L28.4205 30.8324C32.4822 33.0423 40.042 29.5645 35.5061 27.3794L34.5041 25.088C35.3711 24.8567 36.2086 24.5275 37.0002 24.107C38.4266 23.2075 38.8937 21.5784 38.6406 19.712C38.2376 16.7195 37.5708 14.4387 34.6681 9.44168C31.4587 3.98068 24.6834 6.8068 22.0375 10.6422C19.3915 14.4777 23.4888 20.1866 23.4888 20.1866Z" fill="#FFEDE5"/>
<path d="M23.7705 20.8418C23.578 20.9303 22.3121 20.0308 21.631 19.8006C20.7074 19.4854 19.2061 13.6809 19.2061 13.6809C19.2061 13.6809 17.9794 12.6007 18.6534 10.6529C19.2061 9.05565 21.2458 7.98612 22.658 7.27782C25.204 5.99934 28.0532 4.54378 29.3013 1.8664C29.4012 1.65391 29.5438 1.41309 29.7792 1.40955C29.8523 1.41602 29.9233 1.43689 29.9882 1.47095C30.0531 1.505 30.1106 1.55154 30.1572 1.60787C30.745 2.26333 31.0766 3.10655 31.0914 3.98422C31.0914 4.06567 31.1164 4.16838 31.1984 4.19317C31.2804 4.21796 31.3411 4.15067 31.391 4.09046C31.6499 3.77553 31.8471 3.41515 31.9722 3.02801C32.1434 2.50033 33.042 3.84256 33.1062 4.02672C33.3164 4.60934 33.4071 5.22789 33.3728 5.84586C33.3385 6.46384 33.18 7.06874 32.9065 7.62489C32.3502 8.73338 31.2055 9.42043 30.1572 10.026C27.8215 11.3789 23.8276 12.668 23.2713 12.8203C22.5153 13.0292 22.6615 13.7836 23.0894 15.827C23.4817 17.6332 24.416 20.5408 23.7705 20.8418Z" fill="#263238"/>
<path d="M34.504 25.088C34.504 25.088 30.3318 25.9628 28.8484 25.853C27.9781 25.7902 27.1475 25.4667 26.4663 24.9251C26.9505 25.5495 27.557 26.0699 28.2493 26.455C29.6186 27.1988 34.8962 26.0124 34.8962 26.0124L34.504 25.088Z" fill="#F28F8F"/>
<path d="M27.9857 14.3042L26.7448 15.6499C26.566 15.4773 26.4614 15.2427 26.4527 14.9952C26.4441 14.7477 26.5321 14.5064 26.6984 14.3219C26.7809 14.2354 26.8801 14.1661 26.99 14.1183C27.0999 14.0704 27.2183 14.0449 27.3383 14.0433C27.4583 14.0416 27.5774 14.0639 27.6886 14.1087C27.7998 14.1535 27.9008 14.22 27.9857 14.3042Z" fill="#263238"/>
<path d="M31.9829 21.1783L33.8194 21.0933C33.8306 21.2132 33.8173 21.3342 33.7804 21.449C33.7434 21.5638 33.6835 21.67 33.6043 21.7612C33.5251 21.8525 33.4281 21.9269 33.3192 21.9801C33.2104 22.0333 33.0918 22.0641 32.9707 22.0707C32.7218 22.0777 32.4799 21.9886 32.2957 21.8222C32.1115 21.6558 31.9994 21.425 31.9829 21.1783Z" fill="#F28F8F"/>
<path d="M35.5383 12.1686L33.7554 11.7153C33.7796 11.5974 33.8277 11.4856 33.8968 11.3867C33.9658 11.2878 34.0544 11.2038 34.1571 11.1399C34.2598 11.076 34.3745 11.0334 34.4942 11.0149C34.614 10.9963 34.7362 11.0021 34.8537 11.0318C35.0921 11.0992 35.2956 11.2542 35.4228 11.4655C35.5501 11.6767 35.5914 11.9282 35.5383 12.1686Z" fill="#263238"/>
<path d="M31.7334 14.9417L32.9494 19.2871L35.089 17.998L31.7334 14.9417Z" fill="#F28F8F"/>
<path d="M28.3491 16.8895C28.3498 17.0462 28.3973 17.1993 28.4855 17.3293C28.5737 17.4592 28.6987 17.5604 28.8447 17.6199C28.9907 17.6794 29.1512 17.6946 29.3059 17.6636C29.4606 17.6326 29.6026 17.5567 29.714 17.4456C29.8253 17.3346 29.901 17.1932 29.9316 17.0394C29.9621 16.8856 29.9461 16.7263 29.8855 16.5816C29.825 16.4368 29.7226 16.3131 29.5913 16.2261C29.46 16.1391 29.3057 16.0927 29.1479 16.0927C29.0427 16.0927 28.9385 16.1133 28.8414 16.1534C28.7443 16.1935 28.656 16.2522 28.5818 16.3263C28.5076 16.4003 28.4488 16.4882 28.4089 16.5848C28.369 16.6815 28.3487 16.785 28.3491 16.8895Z" fill="#263238"/>
<path d="M34.1299 14.6406C34.1292 14.7929 34.1741 14.942 34.2588 15.0689C34.3436 15.1959 34.4644 15.2949 34.6059 15.3535C34.7475 15.4121 34.9034 15.4276 35.0538 15.3981C35.2042 15.3686 35.3424 15.2953 35.4509 15.1876C35.5593 15.0799 35.6331 14.9426 35.6628 14.7932C35.6926 14.6438 35.6769 14.489 35.6179 14.3485C35.5589 14.2079 35.4592 14.0879 35.3314 14.0037C35.2036 13.9195 35.0535 13.875 34.9001 13.8757C34.6961 13.8766 34.5008 13.9575 34.3565 14.1008C34.2123 14.244 34.1308 14.4381 34.1299 14.6406Z" fill="#263238"/>
<path d="M101.23 74.4425C100.927 74.6479 101.398 75.9441 101.673 76.2628C102.245 76.815 102.951 77.2104 103.723 77.4103C105.127 77.8373 106.439 78.5194 107.592 79.4218C109.014 80.5655 110.669 81.3906 112.442 81.8407C114.546 82.3046 116.978 81.7132 119.099 80.463C121.325 79.1562 121.118 77.9025 120.815 77.0667L101.23 74.4425Z" fill="#37474F"/>
<path d="M106.044 67.1682C106.757 67.919 110.637 71.7296 113.615 72.7C115.986 73.4721 119.071 74.2087 120.422 75.643C121.827 77.1375 119.734 79.0499 116.856 80.1478C113.854 81.2882 111.814 80.3674 109.821 79.3722C108.419 78.6639 106.354 77.2473 105.317 76.6771C104.279 76.1069 102.357 75.7953 101.555 74.9489C101.112 74.4814 100.795 73.1781 100.603 72.0342C100.428 70.9718 99.7217 70.012 100.082 69.9553L100.667 70.5893C103.377 71.0851 106.201 68.599 106.044 67.1682Z" fill="url(#paint2_linear_1_1667)"/>
<path d="M12.0316 23.5582C10.3226 24.475 8.47716 25.1146 6.56494 25.4529C6.56494 25.4529 9.59244 26.2072 13.1941 24.1354L12.0316 23.5582Z" fill="#F28F8F"/>
</g>
<defs>
<linearGradient id="paint0_linear_1_1667" x1="94.7044" y1="34.303" x2="76.9353" y2="33.3337" gradientUnits="userSpaceOnUse">
<stop stop-color="#92A3FD"/>
<stop offset="1" stop-color="#9DCEFF"/>
</linearGradient>
<linearGradient id="paint1_linear_1_1667" x1="57.1018" y1="59.1184" x2="11.6486" y2="55.5217" gradientUnits="userSpaceOnUse">
<stop stop-color="#92A3FD"/>
<stop offset="1" stop-color="#9DCEFF"/>
</linearGradient>
<linearGradient id="paint2_linear_1_1667" x1="120.87" y1="80.6748" x2="93.2579" y2="77.3702" gradientUnits="userSpaceOnUse">
<stop stop-color="#92A3FD"/>
<stop offset="1" stop-color="#9DCEFF"/>
</linearGradient>
<clipPath id="clip0_1_1667">
<rect width="121" height="82" fill="white"/>
</clipPath>
</defs>
</svg>
