<svg width="73" height="90" viewBox="0 0 73 90" fill="none" xmlns="http://www.w3.org/2000/svg">
<g clip-path="url(#clip0_1_1593)">
<g opacity="0.3">
<path opacity="0.3" d="M18.3031 55.055H18.2588L16.5559 54.5601C16.4975 54.5419 16.4484 54.501 16.4191 54.4463C16.3899 54.3915 16.3828 54.3273 16.3994 54.2673C16.4161 54.2072 16.4551 54.1563 16.5081 54.1253C16.5611 54.0943 16.6239 54.0857 16.683 54.1014L18.3741 54.5903C18.4277 54.6082 18.4732 54.6454 18.502 54.6949C18.5309 54.7443 18.5413 54.8028 18.5312 54.8595C18.5211 54.9162 18.4912 54.9672 18.4471 55.0031C18.403 55.0391 18.3477 55.0575 18.2913 55.055H18.3031Z" fill="black"/>
<path opacity="0.3" d="M16.5559 56.3949C16.5077 56.3904 16.462 56.3709 16.425 56.3391C16.388 56.3072 16.3615 56.2646 16.349 56.2168C16.3396 56.1855 16.3367 56.1526 16.3404 56.1201C16.3441 56.0876 16.3543 56.0562 16.3704 56.0279C16.3865 55.9996 16.4081 55.975 16.4339 55.9555C16.4597 55.9361 16.4892 55.9224 16.5204 55.9151L18.2233 55.4745C18.2824 55.4615 18.3442 55.4723 18.3956 55.5048C18.447 55.5373 18.484 55.5888 18.499 55.6486C18.5139 55.7084 18.5055 55.7718 18.4756 55.8254C18.4457 55.8791 18.3966 55.9188 18.3386 55.9362L16.6328 56.3768C16.6084 56.3873 16.5824 56.3934 16.5559 56.3949Z" fill="black"/>
<path opacity="0.3" d="M17.4251 58.0003C17.369 57.9946 17.3167 57.969 17.2773 57.9279C17.2342 57.8832 17.21 57.8231 17.21 57.7604C17.21 57.6977 17.2342 57.6375 17.2773 57.5929L18.5367 56.3405C18.5582 56.3164 18.5842 56.2971 18.6133 56.2836C18.6423 56.2702 18.6737 56.263 18.7056 56.2624C18.7375 56.2619 18.7691 56.268 18.7986 56.2804C18.8281 56.2928 18.8548 56.3112 18.877 56.3345C18.8993 56.3578 18.9166 56.3855 18.9279 56.416C18.9393 56.4464 18.9444 56.4788 18.943 56.5113C18.9416 56.5439 18.9337 56.5757 18.9197 56.605C18.9058 56.6343 18.8861 56.6603 18.862 56.6815L17.6084 57.9399C17.5836 57.9624 17.5545 57.9794 17.523 57.9897C17.4914 58.0001 17.4581 58.0037 17.4251 58.0003Z" fill="black"/>
<path opacity="0.3" d="M18.9537 58.9509H18.9094C18.8792 58.9423 18.851 58.9275 18.8265 58.9075C18.802 58.8875 18.7817 58.8627 18.7668 58.8346C18.7519 58.8064 18.7427 58.7755 18.7398 58.7436C18.7369 58.7118 18.7402 58.6796 18.7497 58.6491L19.2169 56.923C19.2347 56.8633 19.2748 56.8132 19.3284 56.7834C19.382 56.7535 19.445 56.7463 19.5038 56.7633C19.5626 56.7802 19.6125 56.8201 19.6429 56.8742C19.6732 56.9283 19.6816 56.9924 19.6662 57.0527L19.1873 58.7789C19.1728 58.8301 19.1419 58.8748 19.0996 58.906C19.0572 58.9372 19.0059 58.953 18.9537 58.9509Z" fill="black"/>
</g>
<path d="M65.139 32.1537L60.9025 34.6433L51.6252 36.0133C51.6252 36.0133 44.8521 25.6264 43.8143 23.9938C42.7766 22.3612 41.5616 21.3141 38.75 21.3171L39.2822 29.6037C39.3708 29.8723 44.9792 36.9247 48.6777 40.7692C49.9844 42.1242 50.7856 42.4712 52.8167 41.8918C58.0288 40.4161 64.3467 36.0435 64.8552 34.9511C65.5381 33.5237 65.0888 32.1838 65.139 32.1537Z" fill="#FFEDE5"/>
<path d="M63.3979 26.8998C63.9537 25.047 66.2243 23.5381 68.3322 24.1417C68.6661 24.2358 68.9862 24.3749 69.2842 24.5551C71.3537 25.7622 73.0004 28.7044 73.0004 31.1246C73.0071 31.5333 72.9513 31.9406 72.8348 32.3317C72.282 34.1816 70.0174 35.7025 67.9006 35.0959C67.5672 35.0004 67.2472 34.8615 66.9486 34.6825C64.8968 33.4754 63.2324 30.5301 63.2324 28.1099C63.2264 27.7003 63.2822 27.2922 63.3979 26.8998Z" fill="#455A64"/>
<path d="M66.9516 34.6644C64.8998 33.4573 63.2354 30.5121 63.2354 28.0919C63.2354 25.6717 64.8998 24.6939 66.9516 25.901C69.0033 27.1081 70.6589 30.0504 70.6589 32.4706C70.6589 34.8908 69.0033 35.8715 66.9516 34.6644Z" fill="#37474F"/>
<path d="M66.9514 28.5837C66.1621 28.119 65.5205 28.4962 65.5205 29.4257C65.5474 29.9323 65.6909 30.4254 65.9396 30.8648C66.1882 31.3042 66.5349 31.6776 66.9514 31.9545C67.7408 32.4192 68.3794 32.042 68.3794 31.1126C68.3531 30.6061 68.2101 30.1131 67.9619 29.6737C67.7138 29.2343 67.3676 28.8608 66.9514 28.5837Z" fill="#455A64"/>
<path d="M66.4607 29.9809C66.4702 30.1545 66.5195 30.3233 66.6048 30.4738C66.6901 30.6242 66.8088 30.7521 66.9515 30.847C66.9983 30.8815 67.0528 30.9036 67.11 30.9115C67.1672 30.9194 67.2255 30.9128 67.2796 30.8923L67.3151 30.8711C67.3574 30.8342 67.3906 30.7876 67.4122 30.7353C67.4337 30.6829 67.443 30.6261 67.4393 30.5694C67.4299 30.3962 67.3809 30.2276 67.2962 30.0772C67.2115 29.9268 67.0934 29.7987 66.9515 29.7033C66.9046 29.6688 66.8502 29.6467 66.7929 29.6388C66.7357 29.6309 66.6774 29.6375 66.6233 29.658L66.5878 29.6792C66.5448 29.7157 66.5109 29.762 66.4888 29.8145C66.4667 29.8669 66.4571 29.924 66.4607 29.9809Z" fill="#37474F"/>
<path d="M58.6112 34.6071C58.6204 34.7803 58.6693 34.949 58.754 35.0994C58.8388 35.2499 58.957 35.3779 59.0991 35.4731C59.1626 35.515 59.2363 35.538 59.3119 35.5395C59.3693 35.5384 59.4254 35.5217 59.4745 35.4912L67.2795 30.8923L67.315 30.8712C67.3572 30.8342 67.3905 30.7876 67.412 30.7353C67.4336 30.6829 67.4429 30.6261 67.4391 30.5694C67.4297 30.3962 67.3807 30.2276 67.296 30.0772C67.2113 29.9268 67.0933 29.7987 66.9513 29.7033C66.9045 29.6688 66.85 29.6467 66.7928 29.6388C66.7355 29.6309 66.6773 29.6375 66.6232 29.658L66.5877 29.6792L58.7827 34.2781C58.7267 34.3109 58.6809 34.3592 58.6505 34.4174C58.6202 34.4756 58.6066 34.5413 58.6112 34.6071Z" fill="#FAFAFA"/>
<path d="M50.9513 34.2359C51.5041 32.386 53.7687 30.856 55.8855 31.4626C56.2197 31.5586 56.5406 31.6975 56.8405 31.876C58.8922 33.0831 60.5567 36.0284 60.5567 38.4486C60.5617 38.8572 60.5059 39.2642 60.3911 39.6557C59.8353 41.5055 57.5737 43.0264 55.4569 42.4229C55.1236 42.3268 54.8037 42.1879 54.5049 42.0095C52.4531 40.8024 50.7887 37.8571 50.7887 35.4399C50.7818 35.0324 50.8367 34.6263 50.9513 34.2359Z" fill="#455A64"/>
<path d="M54.5019 41.9974C52.4501 40.7904 50.7856 37.8451 50.7856 35.4279C50.7856 33.0107 52.4501 32.0269 54.5019 33.234C56.5536 34.4411 58.2181 37.3864 58.2181 39.8066C58.2181 42.2268 56.5566 43.2075 54.5019 41.9974Z" fill="#37474F"/>
<path d="M54.5017 35.9107C53.7123 35.443 53.0737 35.8202 53.0737 36.7527C53.1005 37.2586 53.2437 37.751 53.4918 38.1899C53.7399 38.6287 54.0859 39.0017 54.5017 39.2785C55.2911 39.7432 55.9326 39.366 55.9326 38.4365C55.9053 37.9304 55.7615 37.4379 55.5129 36.9991C55.2643 36.5602 54.9178 36.1874 54.5017 35.9107Z" fill="#455A64"/>
<path d="M54.0139 37.314C54.0231 37.4872 54.072 37.6559 54.1567 37.8063C54.2415 37.9568 54.3596 38.0848 54.5017 38.18C54.5486 38.2145 54.603 38.2367 54.6603 38.2446C54.7175 38.2525 54.7758 38.2458 54.8299 38.2253C54.843 38.2208 54.8551 38.2136 54.8654 38.2042C54.9082 38.1675 54.942 38.1211 54.9641 38.0687C54.9861 38.0163 54.9959 37.9594 54.9925 37.9024C54.9828 37.7289 54.9333 37.5602 54.8481 37.4098C54.7629 37.2593 54.6442 37.1314 54.5017 37.0363C54.455 37.0029 54.4009 36.9815 54.3443 36.9742C54.2876 36.9668 54.23 36.9737 54.1765 36.9941L54.1411 37.0152C54.0981 37.0511 54.0642 37.0969 54.0421 37.1489C54.02 37.2008 54.0103 37.2574 54.0139 37.314Z" fill="#37474F"/>
<path d="M52.8315 38.0231C52.8399 38.1965 52.8885 38.3654 52.9733 38.516C53.0581 38.6666 53.1767 38.7944 53.3193 38.8892C53.3828 38.931 53.4565 38.954 53.5321 38.9555C53.5895 38.9541 53.6456 38.9375 53.6947 38.9073L54.83 38.2373C54.8431 38.2328 54.8552 38.2256 54.8655 38.2162C54.9083 38.1795 54.9421 38.1331 54.9642 38.0807C54.9862 38.0283 54.996 37.9714 54.9926 37.9144C54.9829 37.741 54.9334 37.5722 54.8482 37.4218C54.763 37.2714 54.6443 37.1435 54.5018 37.0484C54.4551 37.0149 54.401 36.9936 54.3444 36.9862C54.2877 36.9789 54.2301 36.9857 54.1766 37.0061L54.1412 37.0272L53.0029 37.6942C52.9469 37.7269 52.9011 37.7752 52.8708 37.8334C52.8404 37.8916 52.8268 37.9573 52.8315 38.0231Z" fill="#FAFAFA"/>
<path d="M52.8315 38.0231C52.8402 38.1969 52.8889 38.3662 52.9736 38.5172C53.0584 38.6682 53.1768 38.7967 53.3193 38.8922C53.3666 38.9257 53.4212 38.947 53.4783 38.9544C53.5354 38.9617 53.5935 38.9549 53.6474 38.9345L53.6829 38.9133C53.7261 38.877 53.7602 38.8306 53.7823 38.7782C53.8044 38.7257 53.8139 38.6686 53.81 38.6116C53.8001 38.4377 53.7506 38.2686 53.6654 38.1178C53.5802 37.9669 53.4617 37.8384 53.3193 37.7425C53.272 37.709 53.2174 37.6877 53.1603 37.6803C53.1031 37.6729 53.0451 37.6798 52.9911 37.7002L52.9556 37.7213C52.9132 37.7582 52.8798 37.8047 52.8582 37.8571C52.8367 37.9095 52.8275 37.9664 52.8315 38.0231Z" fill="#E0E0E0"/>
<path d="M62.4305 37.0755C64.2251 35.6783 65.9457 35.6874 65.6353 32.2713C65.3722 30.7625 65.0056 30.6538 63.5658 30.0805C62.9331 29.83 62.0876 29.6399 61.5821 30.2314C61.5265 30.3057 61.4652 30.3753 61.3988 30.4396C61.2497 30.5366 61.0786 30.5927 60.9021 30.6025C60.565 30.6193 60.2446 30.7572 59.9974 30.9918C59.8289 31.188 59.7639 31.4566 59.5983 31.6527C59.4392 31.8064 59.2682 31.9467 59.0868 32.0722C58.9569 32.1872 58.8521 32.3289 58.7792 32.488C58.7064 32.6471 58.6672 32.82 58.6641 32.9956C58.676 33.1963 58.7309 33.3919 58.8249 33.5687C58.9189 33.7454 59.0496 33.899 59.208 34.0186L60.1127 33.4875C60.4823 33.2279 61.245 34.1544 60.9169 34.6433C60.3936 35.4218 62.4305 37.0755 62.4305 37.0755Z" fill="#FFEDE5"/>
<path d="M41.5289 43.9438C42.1025 41.5779 42.268 35.6663 42.268 35.6663L25.4814 36.1793L26.395 39.9122C26.5457 40.7537 26.6258 41.6067 26.6344 42.4621C26.6344 42.4621 28.2634 45.5432 33.0942 46.0834C36.0625 46.3722 39.0384 45.6173 41.5289 43.9438Z" fill="#FFEDE5"/>
<path d="M42.277 35.6662C42.2977 35.8533 42.1795 37.6428 42.1795 37.6428C40.0331 39.4867 33.1476 40.4191 25.9191 37.9657L24.3877 31.9303C24.3877 31.9303 29.5851 29.6007 26.0729 21.7848L29.8482 21.483L36.5504 21.311H38.75C40.5586 23.1046 42.0871 25.1706 43.2822 27.437C44.1603 29.1088 45.2778 31.5592 42.277 35.6662Z" fill="#455A64"/>
<path d="M32.7778 35.7206C29.7534 34.9329 28.9966 33.0046 28.7808 31.5863C28.7808 31.5863 28.2102 35.7206 32.5325 36.6832C37.0913 37.6972 38.9656 34.0125 38.9656 34.0125C38.9656 34.0125 36.4261 36.6711 32.7778 35.7206Z" fill="#37474F"/>
<path d="M7.03334 81.7255C6.14641 82.3864 4.10353 82.5463 2.30306 81.6832C0.502602 80.8202 -0.24833 78.3638 0.0887024 76.4656C0.496689 74.151 1.61717 72.8866 1.90099 71.4924C2.18481 70.0983 1.90099 68.173 2.33263 66.9297C2.51055 66.4518 2.78762 66.0188 3.14482 65.6604C3.50203 65.3021 3.93093 65.0268 4.40212 64.8535C4.70253 64.735 5.02555 64.6883 5.34636 64.7171C5.66718 64.7459 5.97728 64.8493 6.25285 65.0195L6.785 65.3393L7.03334 81.7255Z" fill="#263238"/>
<path d="M9.14708 72.8987L7.74573 77.1898C7.74573 77.1898 8.63266 80.2498 8.13302 81.0646C7.39688 82.2717 6.09901 82.4829 3.91421 81.8009C1.41603 81.0254 0.827704 78.7168 0.957786 76.9243C1.13517 74.3683 3.45005 72.446 3.18397 69.9836C3.05389 68.7765 3.21649 67.4276 3.86395 66.3895C4.58827 65.2307 5.77676 65.0134 7.00958 65.3906C8.06798 65.7165 8.9963 66.3955 9.8921 67.0323C10.1493 67.1993 10.3822 67.4025 10.5839 67.6358C10.7444 67.8542 10.8646 68.1007 10.9387 68.3631C11.1008 68.8904 11.1492 69.4474 11.0806 69.9956C11.0155 70.5086 10.6933 70.8074 10.3947 71.2027L9.14708 72.8987Z" fill="url(#paint0_linear_1_1593)"/>
<path d="M15.187 70.8678C15.1012 70.8346 10.8203 68.0402 10.3591 67.829C9.89792 67.6177 8.76266 67.319 7.66583 69.9112C6.88237 71.755 8.00877 72.437 8.00877 72.437L13.0347 75.4849L15.187 70.8678Z" fill="#FFEDE5"/>
<path d="M7.74592 77.1899C6.84013 76.7278 5.83734 76.4988 4.82497 76.523C4.74981 76.5302 4.67406 76.5184 4.60439 76.4887C4.53471 76.459 4.47324 76.4124 4.42537 76.3528C4.3775 76.2932 4.34469 76.2225 4.32983 76.147C4.31496 76.0714 4.3185 75.9933 4.34012 75.9194C4.36857 75.8315 4.42198 75.7541 4.49356 75.6972C4.56514 75.6402 4.65168 75.6063 4.74219 75.5996C5.41922 75.5453 7.06299 75.5241 8.15391 76.4415C8.44364 77.039 7.74592 77.1899 7.74592 77.1899Z" fill="url(#paint1_linear_1_1593)"/>
<path d="M8.26008 75.2283C7.37924 74.7192 6.38947 74.4384 5.37757 74.4105C5.30136 74.4144 5.22541 74.3989 5.15653 74.3654C5.08764 74.3319 5.02796 74.2815 4.98284 74.2187C4.93772 74.1559 4.90857 74.0827 4.898 74.0056C4.88743 73.9284 4.89577 73.8498 4.92228 73.7768C4.95488 73.6902 5.01184 73.6153 5.08601 73.5616C5.16018 73.5079 5.24824 73.4778 5.33913 73.475C6.01911 73.4569 7.66288 73.5263 8.7065 74.498C8.96371 75.1167 8.26008 75.2283 8.26008 75.2283Z" fill="url(#paint2_linear_1_1593)"/>
<path opacity="0.3" d="M7.74592 77.1899C6.84013 76.7278 5.83734 76.4988 4.82497 76.523C4.74981 76.5302 4.67406 76.5184 4.60439 76.4887C4.53471 76.459 4.47324 76.4124 4.42537 76.3528C4.3775 76.2932 4.34469 76.2225 4.32983 76.147C4.31496 76.0714 4.3185 75.9933 4.34012 75.9194C4.36857 75.8315 4.42198 75.7541 4.49356 75.6972C4.56514 75.6402 4.65168 75.6063 4.74219 75.5996C5.41922 75.5453 7.06299 75.5241 8.15391 76.4415C8.44364 77.039 7.74592 77.1899 7.74592 77.1899Z" fill="black"/>
<path opacity="0.3" d="M8.26008 75.2283C7.37924 74.7192 6.38947 74.4384 5.37757 74.4105C5.30136 74.4144 5.22541 74.3989 5.15653 74.3654C5.08764 74.3319 5.02796 74.2815 4.98284 74.2187C4.93772 74.1559 4.90857 74.0827 4.898 74.0056C4.88743 73.9284 4.89577 73.8498 4.92228 73.7768C4.95488 73.6902 5.01184 73.6153 5.08601 73.5616C5.16018 73.5079 5.24824 73.4778 5.33913 73.475C6.01911 73.4569 7.66288 73.5263 8.7065 74.498C8.96371 75.1167 8.26008 75.2283 8.26008 75.2283Z" fill="black"/>
<path d="M51.8883 82.1902L57.4494 79.939C57.3548 78.4754 57 76.526 57.3695 72.6965L51.0605 71.4713V77.9171L51.8883 82.1902Z" fill="#FFEDE5"/>
<path d="M67.7554 87.1754C67.9031 87.6324 67.8757 88.1295 67.6785 88.5666C67.4893 88.974 65.405 90.172 62.5934 89.9789C60.5085 89.8298 58.5007 89.114 56.7782 87.9057C55.7079 87.1815 54.5904 87.0457 53.2009 86.9642C51.8114 86.8827 49.9784 86.1736 49.6739 85.5097C49.3694 84.8458 49.7212 83.699 49.7212 83.699L67.7554 87.1754Z" fill="#263238"/>
<path d="M56.4113 78.2189L56.633 78.1706C56.7535 78.1376 56.8795 78.1314 57.0026 78.1525C57.1391 78.1955 57.2604 78.2784 57.3514 78.3909C57.6267 78.749 57.8663 79.1341 58.0669 79.5406C58.6582 80.5214 59.894 81.3362 61.245 82.0755C62.1645 82.5795 63.0632 82.9808 64.0123 83.4063C64.9613 83.8318 66.2621 84.1215 67.0189 84.6436C68.1217 85.401 68.2665 87.3082 67.0189 88.0596C65.9369 88.7114 63.0839 89.4146 60.092 88.5485C58.4601 88.0777 56.6508 86.3003 54.5133 86.1343C53.1533 86.0257 50.5783 85.6364 49.7032 84.5832C49.3809 84.1155 49.8126 82.6307 50.1673 81.3512C50.5546 79.954 50.6965 77.4916 51.1518 77.6153C51.1518 77.6153 51.0276 77.9624 51.205 78.1495C51.3824 78.3366 52.0062 78.7108 52.1895 78.8677C52.4961 79.1868 52.7435 79.56 52.9198 79.9691C52.993 80.1539 53.1296 80.3051 53.3041 80.3946C53.5347 80.4821 53.7062 80.3343 53.8954 80.2407C54.1512 80.1239 54.4393 80.1036 54.7084 80.1834C54.6824 79.9062 54.634 79.6316 54.5635 79.3626C54.5333 79.2776 54.5261 79.1858 54.5428 79.097C54.58 79.0142 54.6408 78.9448 54.7173 78.8979C55.2292 78.5532 55.8063 78.3219 56.4113 78.2189Z" fill="url(#paint3_linear_1_1593)"/>
<path d="M59.9739 81.3211C59.9739 81.3211 59.7787 80.7869 58.9716 80.6361C58.3508 80.5184 57.2569 80.9831 56.5769 81.5414C56.513 81.5953 56.4628 81.6643 56.4308 81.7424C56.3987 81.8205 56.3858 81.9054 56.3931 81.9897C56.4004 82.0741 56.4276 82.1553 56.4725 82.2265C56.5174 82.2977 56.5786 82.3567 56.6508 82.3984C56.7436 82.4525 56.8508 82.4753 56.9571 82.4634C57.0633 82.4514 57.1631 82.4054 57.2421 82.332C57.9906 81.6476 58.9695 81.2853 59.9739 81.3211Z" fill="url(#paint4_linear_1_1593)"/>
<path d="M61.8926 82.4165C61.7586 82.2236 61.5813 82.0663 61.3756 81.9576C61.1699 81.849 60.9416 81.7921 60.71 81.7919C60.71 81.7919 59.0928 81.8402 58.0906 82.7907C58.0295 82.8431 57.9818 82.9098 57.9513 82.985C57.9208 83.0602 57.9085 83.1419 57.9155 83.223C57.9224 83.3041 57.9484 83.3823 57.9913 83.451C58.0341 83.5197 58.0925 83.5768 58.1615 83.6176C58.2493 83.6674 58.3502 83.6878 58.4499 83.6759C58.5497 83.6639 58.6432 83.6203 58.7174 83.5512C59.1301 83.1321 59.6295 82.8127 60.1789 82.6164C60.7284 82.42 61.3139 82.3517 61.8926 82.4165Z" fill="url(#paint5_linear_1_1593)"/>
<path d="M64.0126 83.4063C63.8583 83.2273 63.6681 83.0843 63.4549 82.9869C63.2416 82.8895 63.0104 82.8401 62.7768 82.842C62.7768 82.842 61.269 82.8993 60.2698 83.8499C60.208 83.9017 60.1594 83.968 60.1283 84.0432C60.0972 84.1184 60.0844 84.2002 60.0911 84.2815C60.0978 84.3629 60.1237 84.4414 60.1667 84.5102C60.2097 84.579 60.2684 84.6362 60.3378 84.6767C60.4261 84.7264 60.5274 84.7466 60.6276 84.7347C60.7277 84.7228 60.8217 84.6793 60.8965 84.6104C61.2883 84.176 61.774 83.8409 62.315 83.6319C62.8559 83.4228 63.4372 83.3456 64.0126 83.4063Z" fill="url(#paint6_linear_1_1593)"/>
<path opacity="0.3" d="M59.9739 81.3211C59.9739 81.3211 59.7787 80.7869 58.9716 80.6361C58.3508 80.5184 57.2569 80.9831 56.5769 81.5414C56.513 81.5953 56.4628 81.6643 56.4308 81.7424C56.3987 81.8205 56.3858 81.9054 56.3931 81.9897C56.4004 82.0741 56.4276 82.1553 56.4725 82.2265C56.5174 82.2977 56.5786 82.3567 56.6508 82.3984C56.7436 82.4525 56.8508 82.4753 56.9571 82.4634C57.0633 82.4514 57.1631 82.4054 57.2421 82.332C57.9906 81.6476 58.9695 81.2853 59.9739 81.3211Z" fill="black"/>
<path opacity="0.3" d="M61.8926 82.4165C61.7586 82.2236 61.5813 82.0663 61.3756 81.9576C61.1699 81.849 60.9416 81.7921 60.71 81.7919C60.71 81.7919 59.0928 81.8402 58.0906 82.7907C58.0295 82.8431 57.9818 82.9098 57.9513 82.985C57.9208 83.0602 57.9085 83.1419 57.9155 83.223C57.9224 83.3041 57.9484 83.3823 57.9913 83.451C58.0341 83.5197 58.0925 83.5768 58.1615 83.6176C58.2493 83.6674 58.3502 83.6878 58.4499 83.6759C58.5497 83.6639 58.6432 83.6203 58.7174 83.5512C59.1301 83.1321 59.6295 82.8127 60.1789 82.6164C60.7284 82.42 61.3139 82.3517 61.8926 82.4165Z" fill="black"/>
<path opacity="0.3" d="M64.0126 83.4063C63.8583 83.2273 63.6681 83.0843 63.4549 82.9869C63.2416 82.8895 63.0104 82.8401 62.7768 82.842C62.7768 82.842 61.269 82.8993 60.2698 83.8499C60.208 83.9017 60.1594 83.968 60.1283 84.0432C60.0972 84.1184 60.0844 84.2002 60.0911 84.2815C60.0978 84.3629 60.1237 84.4414 60.1667 84.5102C60.2097 84.579 60.2684 84.6362 60.3378 84.6767C60.4261 84.7264 60.5274 84.7466 60.6276 84.7347C60.7277 84.7228 60.8217 84.6793 60.8965 84.6104C61.2883 84.176 61.774 83.8409 62.315 83.6319C62.8559 83.4228 63.4372 83.3456 64.0126 83.4063Z" fill="black"/>
<path d="M55.6901 49.8193C51.4625 48.8506 41.3663 46.696 41.3663 46.696L41.5289 43.9438C37.8777 45.8752 30.1821 45.329 26.6344 42.4622L26.0757 45.3803C24.7305 47.0241 23.5657 48.8131 22.6019 50.7156C21.7918 52.3542 20.4378 54.9102 21.7859 60.8641C22.5782 64.3616 23.6337 73.5686 23.6337 73.5686L13.2862 69.6758C13.2862 69.6758 12.3992 69.8297 11.6483 71.8093C11.2049 72.9802 11.057 74.1058 11.5064 74.6882C15.2906 77.7391 21.4222 82.7213 27.6189 85.5157C31.7579 87.1332 33.9575 83.5814 34.1585 82.2657C34.9361 77.2261 35.8319 61.0331 35.8319 61.0331L49.6679 60.5835C49.2097 63.2571 51.0722 73.7044 51.0722 73.7044C51.0722 73.7044 54.478 75.2133 57.2984 73.6682C57.2984 73.6682 59.1846 61.6457 59.3679 57.6352C59.5542 53.1629 59.7789 50.7578 55.6901 49.8193Z" fill="url(#paint7_linear_1_1593)"/>
<path opacity="0.15" d="M49.6679 60.5834C49.6679 59.8622 50.138 57.3424 51.7374 55.9995C51.7374 55.9995 49.5438 56.4009 48.5386 60.6196L49.6679 60.5834Z" fill="black"/>
<path opacity="0.15" d="M23.6338 73.5686C23.6338 73.5686 23.9295 77.5429 24.6745 79.4803C24.6745 79.4803 22.809 76.0401 22.605 73.1763L23.6338 73.5686Z" fill="black"/>
<path opacity="0.15" d="M41.3633 46.696L41.5259 43.9468C37.8747 45.8752 30.1821 45.3289 26.6374 42.4651L26.0786 45.3802C26.1082 45.4074 28.3846 47.8095 34.3034 48.1203C40.2221 48.4311 41.3633 46.696 41.3633 46.696Z" fill="black"/>
<path opacity="0.15" d="M35.8438 61.0331C35.7948 59.5394 35.4487 58.0714 34.8266 56.7185C34.2045 55.3655 33.3194 54.1558 32.2251 53.1629C32.2251 53.1629 35.4062 54.6718 36.4705 59.4488C36.4705 59.4488 38.8357 58.3232 40.0714 54.9494C40.0714 54.9494 39.693 58.3232 37.7891 60.2424L43.5275 60.7826L35.8438 61.0331Z" fill="black"/>
<path d="M33.9988 1.20688e-05C32.7841 -0.00197107 31.581 0.240466 30.4582 0.713459C29.3354 1.18645 28.315 1.88072 27.4553 2.75657C26.5956 3.63241 25.9135 4.67265 25.4479 5.81779C24.9824 6.96293 24.7426 8.19052 24.7422 9.43034C24.7422 10.6704 24.9817 11.8983 25.4471 13.0438C25.9125 14.1893 26.5945 15.2299 27.4543 16.1061C28.314 16.9822 29.3346 17.6768 30.4575 18.1499C31.5805 18.6231 32.7839 18.8657 33.9988 18.8637C36.447 18.8597 38.7936 17.864 40.5231 16.0952C42.2526 14.3265 43.2236 11.9293 43.2228 9.43034C43.2228 6.93187 42.2515 4.53551 40.522 2.76742C38.7926 0.999323 36.4465 0.00400961 33.9988 1.20688e-05Z" fill="#263238"/>
<path d="M24.3461 5.73365C24.6802 5.71803 25.015 5.73725 25.3453 5.79098C25.4573 5.7985 25.5626 5.84793 25.641 5.9298C25.6865 5.99751 25.7121 6.07707 25.7149 6.15914C25.7912 6.68306 25.7435 7.21801 25.5759 7.7193C25.4459 8.06935 25.0408 8.24739 24.7836 8.50088C23.7844 9.49069 23.7045 11.1293 24.0977 12.4903C24.4909 13.8513 25.2803 15.0644 25.7918 16.3801C26.3032 17.6958 26.5752 19.2801 25.8509 20.6049C25.57 21.1119 25.0586 21.5102 25.1207 22.1137C25.1916 22.8531 25.8243 23.5592 26.0963 24.2261C26.3948 25.0162 26.4964 25.8696 26.3919 26.7097C26.3171 27.7542 25.9371 28.7518 25.301 29.5735C24.8148 30.1519 24.1871 30.5884 23.4819 30.8386C22.7766 31.0888 22.019 31.1437 21.2862 30.9979C20.9772 30.9428 20.6848 30.8158 20.4318 30.6267C19.9972 30.2706 19.8227 29.6882 19.5862 29.1722C18.8264 27.5034 17.2211 26.2902 16.7333 24.5189C16.2041 22.6328 17.0851 20.6713 18.1671 19.0689C18.6727 18.3205 19.2374 17.5872 19.4857 16.7121C19.8198 15.5321 19.5271 14.2768 19.4502 13.0486C19.3769 11.8489 19.512 10.6454 19.8494 9.49371C20.0918 8.66082 20.4672 7.70119 21.1029 7.10368C21.9949 6.27586 23.1418 5.79138 24.3461 5.73365Z" fill="#263238"/>
<path d="M39.7755 4.31531C40.7866 4.93394 42.0313 7.54425 41.8864 13.0063C41.7622 17.6355 40.287 18.7731 39.5479 19.1021C38.8088 19.431 37.3838 19.2197 36.0002 18.9783V21.7576C36.0002 21.7576 37.9041 24.033 37.774 25.3095C37.6439 26.586 35.0068 26.8726 33.2211 25.6112C31.4354 24.3498 29.9365 21.9266 29.9365 21.9266L29.9957 15.5351C29.9957 15.5351 29.1708 16.3499 27.7902 15.1127C26.6579 14.0897 26.2794 12.3726 27.1723 11.4673C28.0651 10.562 29.7059 10.8064 30.3327 12.1221C30.3327 12.1221 32.5382 12.2126 35.4857 10.577C36.6324 9.95066 37.6184 9.0573 38.3637 7.96939C39.109 6.88148 39.5926 5.62963 39.7755 4.31531Z" fill="#FFEDE5"/>
<path d="M36.8253 11.8234C36.8258 11.9378 36.7933 12.0498 36.7318 12.1454C36.6703 12.2411 36.5826 12.3162 36.4796 12.3613C36.3766 12.4063 36.2628 12.4195 36.1526 12.399C36.0423 12.3785 35.9404 12.3254 35.8595 12.2461C35.7787 12.1669 35.7225 12.0651 35.6979 11.9535C35.6734 11.8419 35.6816 11.7253 35.7215 11.6185C35.7615 11.5116 35.8314 11.419 35.9225 11.3524C36.0136 11.2858 36.122 11.2481 36.234 11.244C36.3868 11.2438 36.5337 11.3041 36.6439 11.4121C36.7542 11.5201 36.8191 11.6675 36.8253 11.8234Z" fill="#263238"/>
<g style="mix-blend-mode:multiply" opacity="0.5">
<g style="mix-blend-mode:multiply" opacity="0.5">
<path d="M36.9554 15.7494L38.277 16.1839C38.2529 16.2745 38.2112 16.3592 38.1543 16.4329C38.0975 16.5066 38.0266 16.5678 37.946 16.6129C37.8654 16.658 37.7767 16.686 37.6852 16.6952C37.5938 16.7045 37.5014 16.6948 37.4137 16.6668C37.2355 16.6047 37.0879 16.4742 37.0024 16.3029C36.9168 16.1316 36.9 15.9331 36.9554 15.7494Z" fill="#F28F8F"/>
</g>
</g>
<path d="M41.5114 10.055L40.3613 9.23419C40.4095 9.1547 40.4731 9.08611 40.5482 9.03265C40.6233 8.97919 40.7084 8.94199 40.7981 8.92333C40.8878 8.90467 40.9804 8.90496 41.07 8.92417C41.1596 8.94337 41.2444 8.9811 41.3192 9.03502C41.472 9.14848 41.5768 9.31694 41.6125 9.50631C41.6481 9.69567 41.612 9.8918 41.5114 10.055Z" fill="#263238"/>
<path d="M41.2393 11.419C41.2404 11.5335 41.2084 11.6458 41.1473 11.7419C41.0861 11.8379 40.9986 11.9134 40.8957 11.959C40.7927 12.0045 40.6789 12.0181 40.5685 11.998C40.458 11.9778 40.3558 11.9249 40.2747 11.8458C40.1935 11.7667 40.137 11.665 40.1122 11.5533C40.0875 11.4416 40.0955 11.3249 40.1353 11.2178C40.1752 11.1107 40.2451 11.018 40.3363 10.9513C40.4274 10.8846 40.5359 10.8468 40.648 10.8426C40.8003 10.8424 40.9468 10.9023 41.057 11.0097C41.1671 11.117 41.2324 11.2637 41.2393 11.419Z" fill="#263238"/>
<g style="mix-blend-mode:multiply" opacity="0.5">
<g style="mix-blend-mode:multiply" opacity="0.5">
<path d="M38.5488 11.075L38.6257 14.5816L40.435 14.0173L38.5488 11.075Z" fill="#F28F8F"/>
</g>
</g>
<g style="mix-blend-mode:multiply" opacity="0.5">
<g style="mix-blend-mode:multiply" opacity="0.5">
<path d="M36.0035 18.9784C34.543 18.7792 31.5452 17.886 31.084 16.6729C31.2698 17.2859 31.635 17.8261 32.1306 18.2209C33.0234 19.0116 35.9976 19.9169 35.9976 19.9169L36.0035 18.9784Z" fill="#F28F8F"/>
</g>
</g>
<path d="M26.0728 21.7878C23.211 21.9961 22.0314 22.3672 20.4379 25.9764C19.004 29.2204 15.5746 37.6157 14.7172 39.4867C13.8598 41.3577 13.6972 42.1091 14.4216 44.0676C15.0128 45.6639 19.8436 54.8347 20.3728 56.1716C20.902 57.5084 21.1356 58.8603 22.0373 60.4175C22.939 61.9746 24.364 63.4955 25.4904 63.8546C27.1608 64.3888 29.3338 63.6464 29.3958 62.6174C29.4579 61.5883 26.945 59.8713 26.262 57.5869C26.7165 57.8917 27.1951 58.1571 27.6929 58.3805C28.37 58.6642 29.1268 58.6008 29.3515 58.2085C29.5762 57.8162 28.8992 57.5778 28.296 56.9652C27.9354 56.6001 27.2968 55.7793 26.4808 55.055C25.928 54.5661 25.0233 54.4213 24.6153 53.8841C24.3965 53.5975 23.4032 51.1139 22.6552 48.9019C21.7328 46.1588 20.5177 42.5074 20.5177 42.5074L25.4904 31.9454C25.4904 31.9454 29.3899 27.9741 26.0728 21.7878Z" fill="#FFEDE5"/>
<path d="M20.3639 56.1715C20.3639 56.1715 21.508 53.8087 24.6063 53.8841L23.7874 52.0252C23.7874 52.0252 20.763 52.2425 19.4888 54.3337L20.3639 56.1715Z" fill="#37474F"/>
<path d="M20.0299 54.1648L20.6951 55.1274C20.7432 55.1974 20.8047 55.2568 20.8758 55.302C20.947 55.3472 21.0263 55.3773 21.109 55.3906C21.1918 55.4038 21.2764 55.3999 21.3576 55.3791C21.4389 55.3582 21.5152 55.3209 21.582 55.2693L22.7646 54.364C22.902 54.2565 22.9942 54.0996 23.0222 53.9252C23.0502 53.7508 23.012 53.5721 22.9154 53.4255L22.2975 52.496C22.251 52.4243 22.1907 52.363 22.1202 52.3158C22.0498 52.2686 21.9706 52.2365 21.8877 52.2216C21.8047 52.2066 21.7196 52.209 21.6376 52.2287C21.5555 52.2484 21.4783 52.2849 21.4105 52.3361L20.157 53.2414C20.0205 53.3469 19.9305 53.5032 19.9067 53.6763C19.8829 53.8494 19.9272 54.025 20.0299 54.1648Z" fill="#263238"/>
<path d="M19.808 54.1406L20.4791 55.1033C20.5275 55.1729 20.5891 55.232 20.6603 55.277C20.7314 55.3219 20.8106 55.3519 20.8933 55.3651C20.9759 55.3783 21.0604 55.3745 21.1416 55.3539C21.2228 55.3333 21.2991 55.2963 21.3661 55.2451L22.5486 54.3398C22.686 54.2324 22.7782 54.0757 22.8068 53.9015C22.8353 53.7273 22.798 53.5485 22.7024 53.4013L22.0845 52.4718C22.0377 52.4004 21.9773 52.3394 21.9068 52.2925C21.8363 52.2456 21.7573 52.2137 21.6744 52.1987C21.5916 52.1838 21.5066 52.1861 21.4247 52.2056C21.3427 52.225 21.2654 52.2612 21.1975 52.3119L19.944 53.2323C19.8097 53.3356 19.7203 53.4885 19.6949 53.6582C19.6695 53.8279 19.7101 54.001 19.808 54.1406Z" fill="#455A64"/>
<path d="M22.5812 53.8238C22.5663 53.9432 22.5057 54.0516 22.4127 54.1256L21.2301 55.0309C21.189 55.0644 21.1414 55.0884 21.0904 55.1014C21.0394 55.1145 20.9862 55.1161 20.9345 55.1063C20.8838 55.0983 20.8352 55.0801 20.7915 55.0526C20.7479 55.0251 20.71 54.989 20.6802 54.9464L20.0062 53.9807C19.9493 53.9005 19.924 53.8014 19.9352 53.7031C19.9392 53.6434 19.9562 53.5854 19.9848 53.5332C20.0134 53.4811 20.053 53.436 20.1008 53.4013L21.3543 52.496C21.3962 52.4643 21.4441 52.4417 21.495 52.4297C21.5459 52.4178 21.5987 52.4167 21.65 52.4266C21.7006 52.4357 21.7489 52.4551 21.7921 52.4836C21.8352 52.5121 21.8724 52.5492 21.9013 52.5926L22.5191 53.522C22.5771 53.6108 22.6023 53.7178 22.5901 53.8238H22.5812Z" fill="url(#paint8_linear_1_1593)"/>
</g>
<defs>
<linearGradient id="paint0_linear_1_1593" x1="11.1108" y1="82.1859" x2="-2.49544" y2="81.5548" gradientUnits="userSpaceOnUse">
<stop stop-color="#92A3FD"/>
<stop offset="1" stop-color="#9DCEFF"/>
</linearGradient>
<linearGradient id="paint1_linear_1_1593" x1="8.22434" y1="77.1899" x2="3.16816" y2="76.2423" gradientUnits="userSpaceOnUse">
<stop stop-color="#92A3FD"/>
<stop offset="1" stop-color="#9DCEFF"/>
</linearGradient>
<linearGradient id="paint2_linear_1_1593" x1="8.76305" y1="75.2283" x2="3.72159" y2="74.3684" gradientUnits="userSpaceOnUse">
<stop stop-color="#92A3FD"/>
<stop offset="1" stop-color="#9DCEFF"/>
</linearGradient>
<linearGradient id="paint3_linear_1_1593" x1="67.9012" y1="88.9515" x2="43.7272" y2="85.9311" gradientUnits="userSpaceOnUse">
<stop stop-color="#92A3FD"/>
<stop offset="1" stop-color="#9DCEFF"/>
</linearGradient>
<linearGradient id="paint4_linear_1_1593" x1="59.9739" y1="82.4665" x2="55.2759" y2="81.762" gradientUnits="userSpaceOnUse">
<stop stop-color="#92A3FD"/>
<stop offset="1" stop-color="#9DCEFF"/>
</linearGradient>
<linearGradient id="paint5_linear_1_1593" x1="61.8926" y1="83.6792" x2="56.6959" y2="82.8314" gradientUnits="userSpaceOnUse">
<stop stop-color="#92A3FD"/>
<stop offset="1" stop-color="#9DCEFF"/>
</linearGradient>
<linearGradient id="paint6_linear_1_1593" x1="64.0126" y1="84.738" x2="58.8839" y2="83.9169" gradientUnits="userSpaceOnUse">
<stop stop-color="#92A3FD"/>
<stop offset="1" stop-color="#9DCEFF"/>
</linearGradient>
<linearGradient id="paint7_linear_1_1593" x1="59.4502" y1="85.9299" x2="-4.72415" y2="80.4216" gradientUnits="userSpaceOnUse">
<stop stop-color="#92A3FD"/>
<stop offset="1" stop-color="#9DCEFF"/>
</linearGradient>
<linearGradient id="paint8_linear_1_1593" x1="22.5931" y1="55.1126" x2="19.0467" y2="54.8415" gradientUnits="userSpaceOnUse">
<stop stop-color="#92A3FD"/>
<stop offset="1" stop-color="#9DCEFF"/>
</linearGradient>
<clipPath id="clip0_1_1593">
<rect width="73" height="90" fill="white"/>
</clipPath>
</defs>
</svg>
